<svg width="330" height="348" viewBox="0 0 330 348" fill="none" xmlns="http://www.w3.org/2000/svg">
<path d="M164.999 26.2329C121.549 26.2329 86.325 34.8179 86.324 45.4079V69.1139C86.3245 82.266 89.628 95.2074 95.9312 106.751C102.235 118.294 111.336 128.069 122.4 135.18C136.631 144.447 147.489 158.063 153.356 174H153.412C153.412 175.56 158.6 176.824 164.999 176.824C171.399 176.824 176.587 175.56 176.587 174H176.644C182.519 158.055 193.383 144.432 207.622 135.157C218.68 128.047 227.775 118.274 234.075 106.735C240.374 95.1961 243.675 82.2603 243.676 69.1139V45.4079C243.674 34.8179 208.449 26.2329 164.999 26.2329Z" fill="white"/>
<path d="M207.6 212.821C193.369 203.553 182.512 189.938 176.644 174.001H153.356C147.481 189.946 136.616 203.568 122.378 212.843C111.32 219.953 102.225 229.726 95.9253 241.265C89.626 252.804 86.3246 265.74 86.324 278.886V302.592C86.325 313.182 121.55 321.766 164.999 321.766C208.449 321.766 243.674 313.182 243.676 302.592V278.886C243.676 265.734 240.372 252.792 234.069 241.249C227.766 229.706 218.664 219.931 207.6 212.82V212.821Z" fill="#F89D57"/>
<path d="M164.999 124.987C155.305 124.987 145.829 127.862 137.769 133.248C129.709 138.633 123.427 146.288 119.718 155.244C116.008 164.2 115.038 174.055 116.929 183.563C118.82 193.07 123.488 201.803 130.343 208.658C137.198 215.512 145.931 220.18 155.438 222.071C164.946 223.962 174.801 222.992 183.757 219.282C192.713 215.572 200.367 209.29 205.753 201.23C211.139 193.17 214.013 183.694 214.013 174C214.013 167.563 212.746 161.19 210.282 155.243C207.819 149.297 204.209 143.893 199.657 139.342C195.106 134.791 189.703 131.18 183.756 128.717C177.809 126.254 171.436 124.987 164.999 124.987Z" fill="#F5D8C1"/>
<path d="M119.731 344.055C120.64 344.21 121.562 344.361 122.498 344.506L122.926 341.757C122.003 341.614 121.094 341.466 120.199 341.313L119.731 344.055ZM139.398 310.217L139.163 307.445C138.228 307.524 137.299 307.607 136.377 307.694L136.64 310.464C137.551 310.377 138.47 310.295 139.398 310.217ZM133.885 310.739L133.593 307.972C132.656 308.071 131.728 308.175 130.811 308.282L131.135 311.045C132.042 310.939 132.958 310.837 133.885 310.739ZM130.823 345.636C131.741 345.743 132.668 345.847 133.605 345.946L133.897 343.179C132.972 343.081 132.055 342.979 131.148 342.872L130.823 345.636ZM158.72 347.466C159.647 347.483 160.579 347.497 161.515 347.507L161.545 344.725C160.617 344.715 159.693 344.701 158.773 344.684L158.72 347.466ZM128.389 311.383L128.031 308.624C127.096 308.745 126.172 308.871 125.257 309L125.648 311.755C126.551 311.627 127.464 311.503 128.388 311.383H128.389ZM125.269 344.918C126.182 345.048 127.108 345.173 128.045 345.294L128.401 342.535C127.476 342.415 126.563 342.291 125.661 342.164L125.269 344.918ZM136.389 346.224C137.31 346.311 138.238 346.395 139.175 346.474L139.409 343.701C138.482 343.623 137.563 343.541 136.652 343.454L136.389 346.224ZM155.99 309.3L155.913 306.519C154.976 306.545 154.044 306.575 153.119 306.609L153.221 309.389C154.138 309.356 155.061 309.327 155.99 309.3ZM153.131 347.31C154.058 347.345 154.989 347.375 155.925 347.4L156.003 344.62C155.075 344.594 154.152 344.564 153.233 344.53L153.131 347.31ZM161.531 309.193L161.501 306.411C160.565 306.421 159.634 306.435 158.707 306.453L158.76 309.235C159.68 309.217 160.604 309.203 161.531 309.193ZM144.921 309.808L144.741 307.031C143.804 307.091 142.874 307.155 141.951 307.224L142.157 309.999C143.07 309.931 143.991 309.867 144.92 309.808H144.921ZM147.545 347.055C148.47 347.106 149.4 347.153 150.337 347.195L150.465 344.416C149.536 344.374 148.614 344.327 147.697 344.276L147.545 347.055ZM141.964 346.695C142.886 346.764 143.816 346.828 144.754 346.889L144.933 344.112C144.004 344.052 143.083 343.988 142.169 343.921L141.964 346.695ZM150.454 309.503L150.325 306.723C149.388 306.767 148.458 306.814 147.533 306.864L147.685 309.643C148.602 309.592 149.525 309.546 150.454 309.503ZM88.2661 325.018L85.8401 323.657C85.2565 324.661 84.9436 325.799 84.9321 326.96H87.7141C87.7253 326.275 87.9156 325.606 88.2661 325.018ZM96.4101 319.079L95.2721 316.54C94.3521 316.952 93.4821 317.377 92.6841 317.805L93.9981 320.258C94.7881 319.837 95.5926 319.444 96.4101 319.079ZM92.6951 336.12C93.4941 336.548 94.3651 336.973 95.2841 337.384L96.4201 334.845C95.6033 334.48 94.7995 334.087 94.0101 333.667L92.6951 336.12ZM101.475 317.111L100.579 314.477C99.6521 314.792 98.7531 315.117 97.9091 315.444L98.9111 318.04C99.7211 317.727 100.583 317.415 101.475 317.111ZM87.8341 332.753C88.567 333.438 89.3546 334.062 90.1891 334.619L91.7471 332.313C91.0396 331.842 90.3717 331.314 89.7501 330.735L87.8341 332.753ZM91.7361 321.613L90.1761 319.309C89.3419 319.866 88.555 320.491 87.8231 321.177L89.7401 323.193C90.3611 322.612 91.0286 322.084 91.7361 321.613ZM87.7141 326.965L84.9321 326.967C84.9444 328.131 85.2597 329.272 85.8471 330.277L88.2701 328.91C87.9177 328.321 87.726 327.651 87.7141 326.965ZM97.9201 338.48C98.7711 338.808 99.6701 339.133 100.592 339.446L101.486 336.811C100.625 336.52 99.771 336.21 98.9231 335.884L97.9201 338.48ZM117.466 313.092L116.956 310.357C116.021 310.532 115.102 310.711 114.201 310.895L114.757 313.621C115.644 313.44 116.547 313.264 117.467 313.091L117.466 313.092ZM122.912 312.162L122.484 309.414C121.548 309.559 120.626 309.709 119.718 309.864L120.185 312.608C121.081 312.455 121.99 312.306 122.912 312.163V312.162ZM114.213 343.026C115.114 343.21 116.033 343.389 116.969 343.564L117.478 340.829C116.559 340.658 115.657 340.481 114.77 340.299L114.213 343.026ZM108.727 341.795C109.618 342.015 110.531 342.229 111.466 342.438L112.073 339.723C111.16 339.518 110.266 339.308 109.393 339.093L108.727 341.795ZM112.062 314.199L111.454 311.484C110.52 311.693 109.607 311.908 108.714 312.127L109.38 314.829C110.253 314.614 111.147 314.404 112.062 314.199ZM106.718 315.519L105.987 312.834C105.056 313.087 104.151 313.347 103.274 313.613L104.081 316.276C104.933 316.018 105.812 315.766 106.718 315.519ZM103.287 340.31C104.164 340.575 105.068 340.834 106 341.088L106.73 338.404C105.824 338.157 104.945 337.905 104.092 337.647L103.287 340.31ZM206.12 309.2C205.209 309.065 204.284 308.933 203.347 308.806L202.973 311.564C203.898 311.689 204.81 311.819 205.711 311.952L206.12 309.2ZM224.606 338.029L225.372 340.703C226.303 340.436 227.205 340.163 228.078 339.883L227.228 337.233C226.383 337.504 225.509 337.77 224.606 338.029ZM228.066 314.029C227.194 313.75 226.292 313.477 225.36 313.21L224.594 315.884C225.497 316.143 226.372 316.408 227.217 316.679L228.066 314.029ZM222.642 312.469C221.753 312.239 220.842 312.014 219.907 311.795L219.272 314.504C220.184 314.717 221.074 314.937 221.943 315.162L222.642 312.469ZM219.283 339.41L219.919 342.12C220.853 341.9 221.764 341.675 222.653 341.445L221.955 338.751C221.086 338.976 220.196 339.195 219.283 339.41ZM211.653 310.103C210.746 309.941 209.825 309.784 208.889 309.632L208.442 312.378C209.364 312.528 210.272 312.683 211.165 312.842L211.653 310.103ZM213.891 340.566L214.425 343.296C215.36 343.114 216.277 342.927 217.177 342.734L216.594 340.014C215.711 340.203 214.81 340.387 213.891 340.566ZM217.164 311.18C216.265 310.988 215.348 310.801 214.412 310.618L213.879 313.348C214.797 313.528 215.698 313.712 216.581 313.901L217.164 311.18ZM208.454 341.538L208.902 344.283C209.838 344.13 210.759 343.973 211.666 343.812L211.177 341.072C210.284 341.232 209.376 341.387 208.454 341.538ZM241.08 324.07L243.233 322.308C242.574 321.52 241.832 320.806 241.019 320.178L239.299 322.365C239.953 322.867 240.55 323.439 241.08 324.07ZM239.308 331.545L241.029 333.731C241.843 333.102 242.585 332.386 243.243 331.596L241.087 329.838C240.558 330.47 239.961 331.042 239.308 331.545ZM244.815 325.207L242.144 325.98C242.332 326.616 242.332 327.292 242.146 327.928L244.82 328.693C245.15 327.554 245.149 326.345 244.815 325.207ZM167.074 309.18L167.091 306.398C166.396 306.394 165.698 306.392 164.999 306.392H164.298L164.302 309.175L164.999 309.174C165.692 309.174 166.384 309.176 167.074 309.18ZM233.405 315.97C232.528 315.607 231.642 315.264 230.749 314.942L229.804 317.559C230.688 317.879 231.541 318.208 232.339 318.539L233.405 315.97ZM229.815 336.354L230.763 338.97C231.656 338.648 232.54 338.306 233.417 337.943L232.351 335.373C231.557 335.703 230.704 336.033 229.816 336.354H229.815ZM238.572 318.514C237.741 318.021 236.889 317.564 236.02 317.142L234.8 319.644C235.6 320.031 236.383 320.452 237.147 320.904L238.572 318.514ZM234.812 334.268L236.032 336.768C236.95 336.321 237.808 335.859 238.585 335.395L237.159 333.006C236.449 333.43 235.658 333.855 234.812 334.268ZM202.985 342.352L203.36 345.109C204.295 344.982 205.219 344.85 206.132 344.715L205.724 341.963C204.823 342.096 203.91 342.226 202.985 342.352ZM178.268 306.662C177.342 306.624 176.411 306.59 175.475 306.559L175.385 309.34C176.314 309.37 177.237 309.404 178.155 309.442L178.268 306.662ZM183.853 306.943C182.929 306.888 181.998 306.837 181.061 306.79L180.921 309.569C181.849 309.616 182.771 309.666 183.687 309.721L183.853 306.943ZM165 344.743H164.314L164.311 347.525H165C165.703 347.525 166.405 347.523 167.104 347.519L167.086 344.736C166.393 344.741 165.697 344.743 165 344.743ZM180.933 344.348L181.073 347.126C182.01 347.079 182.94 347.028 183.865 346.973L183.7 344.195C182.783 344.25 181.861 344.301 180.933 344.348ZM169.856 344.708L169.898 347.49C170.833 347.475 171.765 347.457 172.693 347.436L172.627 344.654C171.708 344.676 170.785 344.695 169.856 344.708ZM172.681 306.481C171.754 306.46 170.823 306.442 169.887 306.428L169.845 309.21C170.773 309.223 171.697 309.241 172.616 309.263L172.681 306.481ZM175.397 344.577L175.487 347.357C176.424 347.327 177.355 347.293 178.28 347.255L178.166 344.475C177.249 344.513 176.326 344.547 175.397 344.576V344.577ZM189.434 307.33C188.511 307.257 187.581 307.188 186.644 307.123L186.452 309.899C187.38 309.963 188.3 310.031 189.213 310.104L189.434 307.33ZM197.494 343.028L197.802 345.793C198.738 345.689 199.665 345.58 200.582 345.467L200.242 342.707C199.336 342.818 198.42 342.925 197.494 343.028ZM191.986 343.58L192.233 346.351C193.17 346.267 194.098 346.179 195.019 346.087L194.741 343.318C193.831 343.41 192.913 343.497 191.986 343.58ZM200.569 308.448C199.653 308.335 198.726 308.227 197.789 308.122L197.482 310.888C198.408 310.991 199.324 311.098 200.23 311.209L200.569 308.448ZM186.463 344.018L186.656 346.794C187.593 346.729 188.523 346.66 189.446 346.587L189.226 343.813C188.313 343.885 187.392 343.953 186.463 344.018ZM195.005 307.828C194.086 307.736 193.158 307.648 192.22 307.565L191.973 310.336C192.9 310.419 193.818 310.506 194.729 310.597L195.005 307.828ZM165 68.0149L73.2141 121.007V226.993L165 279.985L256.786 226.993V121.007L165 68.0149ZM254.004 225.386L165 276.772L75.9961 225.386V122.614L165 71.2279L254.004 122.614V225.386Z" fill="#FFC79B"/>
<path d="M227.877 209.715V210.302L227.369 210.596L228.76 213.006L230.66 211.909V209.715H227.877ZM182.829 236.311L184.219 238.721L186.694 237.291L185.303 234.882L182.829 236.311ZM187.777 233.454L189.168 235.864L191.643 234.434L190.252 232.025L187.777 233.454ZM192.727 230.597L194.117 233.007L196.591 231.577L195.201 229.168L192.727 230.597ZM177.88 239.168L179.27 241.578L181.745 240.149L180.354 237.739L177.88 239.168ZM167.982 244.882L169.373 247.292L171.848 245.863L170.456 243.454L167.982 244.882ZM172.932 242.025L174.322 244.435L176.797 243.006L175.406 240.596L172.932 242.025ZM202.624 224.882L204.015 227.292L206.489 225.863L205.099 223.453L202.624 224.882ZM224.894 212.025L222.418 213.454L223.81 215.863L226.284 214.435L224.894 212.025ZM217.47 216.311L218.861 218.721L221.336 217.291L219.945 214.882L217.47 216.311ZM207.573 222.025L208.963 224.435L211.438 223.005L210.047 220.597L207.573 222.025ZM197.675 227.739L199.065 230.149L201.541 228.72L200.149 226.31L197.675 227.739ZM212.521 219.168L213.912 221.578L216.387 220.148L214.996 217.739L212.521 219.168ZM165.508 246.311L164.999 246.604L164.49 246.311L163.099 248.72L164.999 249.817L166.899 248.72L165.508 246.311ZM123.51 225.863L125.984 227.291L127.375 224.882L124.901 223.454L123.51 225.863ZM128.459 228.72L130.933 230.148L132.324 227.739L129.85 226.311L128.459 228.72ZM118.562 223.006L121.036 224.434L122.426 222.025L119.953 220.596L118.562 223.006ZM113.612 220.149L116.087 221.577L117.479 219.167L115.004 217.739L113.612 220.149ZM103.716 214.435L106.19 215.863L107.581 213.453L105.107 212.025L103.716 214.435ZM108.664 217.292L111.139 218.72L112.529 216.31L110.055 214.882L108.664 217.292ZM153.202 243.006L155.676 244.434L157.067 242.024L154.593 240.596L153.202 243.006ZM148.253 240.148L150.728 241.577L152.119 239.167L149.644 237.739L148.253 240.148ZM159.541 243.453L158.151 245.863L160.625 247.291L162.016 244.881L159.541 243.453ZM138.355 234.434L140.83 235.863L142.221 233.453L139.747 232.025L138.355 234.434ZM143.305 237.291L145.779 238.72L147.169 236.31L144.696 234.882L143.305 237.291ZM133.407 231.577L135.882 233.006L137.272 230.596L134.798 229.168L133.407 231.577ZM102.123 210.303V209.715H99.3401V211.909L101.24 213.006L102.631 210.597L102.123 210.303ZM99.3401 178.286H102.123V175.429H99.3401V178.286ZM99.3401 184H102.123V181.143H99.3401V184ZM99.3401 189.715H102.123V186.858H99.3401V189.715ZM99.3401 206.857H102.123V204H99.3401V206.857ZM99.3401 195.429H102.123V192.572H99.3401V195.429ZM99.3401 201.143H102.123V198.286H99.3401V201.143ZM99.3401 155.43H102.123V152.572H99.3401V155.43ZM99.3401 149.715H102.123V146.858H99.3401V149.715ZM99.3401 172.572H102.123V169.715H99.3401V172.572ZM99.3401 141.144V144.001H102.123V141.144H99.3401ZM99.3401 161.144H102.123V158.287H99.3401V161.144ZM99.3401 166.858H102.123V164.001H99.3401V166.858ZM101.24 134.996L99.3401 136.093V138.287H102.123V137.699L102.631 137.405L101.24 134.996ZM123.51 122.138L124.9 124.548L127.375 123.119L125.985 120.709L123.51 122.138ZM128.458 119.281L129.849 121.691L132.324 120.261L130.933 117.852L128.458 119.281ZM118.561 124.995L119.952 127.405L122.426 125.976L121.036 123.566L118.561 124.995ZM103.715 133.567L105.105 135.977L107.581 134.548L106.189 132.138L103.715 133.567ZM108.664 130.71L110.054 133.12L112.529 131.69L111.139 129.281L108.664 130.71ZM113.612 127.853L115.002 130.263L117.478 128.833L116.086 126.423L113.612 127.853ZM133.406 116.423L134.798 118.833L137.272 117.405L135.881 114.995L133.406 116.423ZM138.356 113.567L139.746 115.977L142.221 114.547L140.83 112.137L138.356 113.567ZM153.201 104.995L154.592 107.405L157.067 105.975L155.676 103.566L153.201 104.995ZM160.624 100.709L158.15 102.138L159.541 104.547L162.015 103.119L160.624 100.709ZM148.252 107.852L149.644 110.262L152.118 108.832L150.727 106.424L148.252 107.852ZM143.304 110.709L144.695 113.119L147.17 111.69L145.779 109.28L143.304 110.709ZM164.999 98.1831L163.098 99.2811L164.491 101.69L164.999 101.396L165.508 101.69L166.899 99.2801L164.999 98.1831ZM182.829 111.69L185.303 113.118L186.694 110.709L184.22 109.281L182.829 111.69ZM187.778 114.547L190.252 115.976L191.644 113.566L189.169 112.138L187.778 114.547ZM192.727 117.404L195.201 118.834L196.592 116.424L194.118 114.994L192.727 117.404ZM167.982 103.118L170.457 104.547L171.849 102.137L169.374 100.709L167.982 103.118ZM177.88 108.833L180.355 110.261L181.746 107.852L179.272 106.423L177.88 108.833ZM172.931 105.976L175.406 107.404L176.796 104.994L174.322 103.566L172.931 105.976ZM197.676 120.262L200.15 121.69L201.542 119.281L199.067 117.852L197.676 120.262ZM223.811 132.139L222.419 134.548L224.894 135.977L226.285 133.567L223.811 132.139ZM217.471 131.691L219.945 133.119L221.336 130.709L218.862 129.281L217.471 131.691ZM212.521 128.833L214.996 130.263L216.387 127.853L213.913 126.423L212.521 128.833ZM202.624 123.119L205.099 124.547L206.489 122.138L204.015 120.71L202.624 123.119ZM207.574 125.976L210.047 127.405L211.438 124.995L208.964 123.567L207.574 125.976ZM228.76 134.996L227.369 137.405L227.877 137.699V138.287H230.66V136.093L228.76 134.996ZM227.877 178.286H230.66V175.429H227.877V178.286ZM227.877 184.001H230.66V181.143H227.877V184.001ZM227.877 189.715H230.66V186.858H227.877V189.715ZM227.877 195.429H230.66V192.572H227.877V195.429ZM227.877 206.858H230.66V204H227.877V206.858ZM227.877 201.143H230.66V198.286H227.877V201.143ZM227.877 166.858H230.66V164.001H227.877V166.858ZM227.877 141.144V144.001H230.66V141.144H227.877ZM227.877 172.572H230.66V169.715H227.877V172.572ZM227.877 149.716H230.66V146.858H227.877V149.716ZM227.877 155.43H230.66V152.573H227.877V155.43ZM227.877 161.144H230.66V158.287H227.877V161.144Z" fill="#FFC79B"/>
<path d="M236.067 245.156H93.935C88.9085 255.689 86.308 267.215 86.325 278.886V302.592C86.325 313.182 121.55 321.766 164.999 321.766C208.449 321.766 243.674 313.182 243.676 302.592V278.886C243.692 267.215 241.092 255.69 236.067 245.156Z" fill="#CC6A1E"/>
<path d="M93.933 102.845C100.249 116.048 110.103 127.24 122.399 135.179C136.631 144.446 147.489 158.062 153.356 174H153.412C153.412 175.56 158.6 176.824 164.999 176.824C171.399 176.824 176.587 175.56 176.587 174H176.644C182.519 158.055 193.383 144.432 207.622 135.157C219.907 127.221 229.752 116.037 236.066 102.845H93.933ZM164.999 283.415C121.549 283.415 86.324 292.001 86.324 302.591C86.324 313.181 121.548 321.766 164.999 321.766C208.452 321.766 243.676 313.182 243.676 302.591C243.676 292 208.452 283.415 164.999 283.415Z" fill="#AD6024"/>
<path d="M164.999 283.416C121.549 283.416 86.324 292.001 86.324 302.591H243.676C243.676 292.001 208.452 283.416 164.999 283.416Z" fill="#CA7D41"/>
<path d="M165 281.329C125.848 281.329 84.2371 288.781 84.2371 302.592C84.2371 316.402 125.848 323.853 165 323.853C204.152 323.853 245.763 316.401 245.763 302.592C245.763 288.781 204.151 281.329 165 281.329ZM220.138 314.123C205.436 317.706 185.854 319.68 165 319.68C144.146 319.68 124.564 317.706 109.862 314.123C94.0461 310.268 88.4121 305.639 88.4121 302.591C88.4121 299.544 94.0461 294.914 109.862 291.06C124.564 287.476 144.146 285.502 165 285.502C185.853 285.502 205.435 287.476 220.138 291.06C235.954 294.914 241.588 299.544 241.588 302.591C241.588 305.639 235.954 310.268 220.138 314.123Z" fill="#CA7D41"/>
<path d="M164.999 231.531C125.196 231.531 92.9299 239.395 92.9299 249.097C92.9299 258.798 125.196 266.663 164.999 266.663C204.803 266.663 237.069 258.798 237.069 249.097C237.069 239.395 204.803 231.531 164.999 231.531Z" fill="#AD6024"/>
<path d="M209.116 210.489C195.409 201.525 184.942 188.398 179.254 173.039C179.132 172.691 178.942 172.37 178.695 172.096C178.447 171.822 178.148 171.6 177.814 171.443C177.48 171.285 177.119 171.196 176.75 171.18C176.381 171.164 176.013 171.221 175.666 171.349C175.32 171.477 175.003 171.672 174.733 171.923C174.463 172.175 174.245 172.478 174.093 172.814C173.941 173.15 173.858 173.514 173.848 173.883C173.837 174.251 173.901 174.619 174.034 174.963C180.139 191.448 191.376 205.538 206.09 215.158C216.772 222.007 225.559 231.435 231.641 242.571C237.723 253.708 240.905 266.197 240.894 278.886V302.592C240.893 306.035 232.485 310.398 219.972 313.447C205.322 317.017 185.798 318.984 165 318.984C144.2 318.984 124.678 317.018 110.027 313.447C97.514 310.397 89.107 306.035 89.107 302.592V278.886C89.097 266.201 92.2778 253.718 98.3568 242.584C104.436 231.451 113.218 222.026 123.894 215.176C138.611 205.549 149.853 191.455 155.966 174.966C156.209 174.277 156.171 173.52 155.861 172.858C155.55 172.196 154.992 171.684 154.307 171.43C153.621 171.177 152.863 171.203 152.197 171.503C151.531 171.804 151.01 172.354 150.746 173.036C145.052 188.401 134.58 201.534 120.868 210.506C109.411 217.859 99.9877 227.976 93.465 239.925C86.9424 251.874 83.53 265.272 83.542 278.886V302.592C83.542 309.312 92.01 314.784 108.709 318.854C123.779 322.526 143.769 324.549 164.999 324.549C186.229 324.549 206.22 322.526 221.289 318.854C237.989 314.784 246.457 309.313 246.458 302.592V278.886C246.472 265.268 243.058 251.865 236.533 239.913C230.007 227.96 220.579 217.841 209.116 210.489Z" fill="#CA7D41"/>
<path d="M164.999 228.708C127.73 228.708 97.519 236.071 97.519 245.156C97.519 254.239 127.73 261.603 164.999 261.603C202.269 261.603 232.482 254.239 232.482 245.156C232.482 236.071 202.269 228.708 164.999 228.708Z" fill="#F89D57"/>
<path d="M97.519 245.156C97.519 254.239 127.73 261.603 164.999 261.603C202.269 261.603 232.482 254.239 232.482 245.156H97.519Z" fill="#FFC79B"/>
<path d="M213.046 232.174C200.196 229.042 183.132 227.317 165 227.317C146.866 227.317 129.804 229.042 116.954 232.174C107.454 234.489 96.127 238.622 96.127 245.156C96.127 251.689 107.453 255.821 116.954 258.137C129.804 261.269 146.868 262.994 165 262.994C183.132 262.994 200.195 261.269 213.046 258.137C222.546 255.821 233.873 251.689 233.873 245.157C233.873 238.622 222.547 234.489 213.046 232.174ZM165 260.212C126.052 260.212 98.91 252.277 98.91 245.156C98.91 238.034 126.052 230.099 165 230.099C203.948 230.099 231.09 238.034 231.09 245.156C231.09 252.277 203.948 260.212 165 260.212ZM221.291 29.1459C206.221 25.4729 186.231 23.4509 164.999 23.4509C143.767 23.4509 123.778 25.4729 108.709 29.1459C92.009 33.2159 83.542 38.6879 83.542 45.4089C83.542 52.1289 92.009 57.6009 108.709 61.6709C123.778 65.3439 143.769 67.3669 164.999 67.3669C186.23 67.3669 206.222 65.3439 221.291 61.6709C237.991 57.6009 246.458 52.1299 246.458 45.4089C246.458 38.6879 237.991 33.2159 221.291 29.1459ZM219.973 56.2649C205.323 59.8349 185.799 61.8019 164.999 61.8019C144.2 61.8019 124.677 59.8359 110.027 56.2649C97.514 53.2149 89.107 48.8519 89.107 45.4089C89.107 41.9659 97.514 37.6019 110.027 34.5519C124.677 30.9819 144.2 29.0149 164.999 29.0149C185.799 29.0149 205.323 30.9819 219.973 34.5519C232.486 37.6019 240.893 41.9649 240.893 45.4089C240.893 48.8529 232.486 53.2149 219.973 56.2649Z" fill="#CA7D41"/>
<path d="M164.999 93.627C127.73 93.627 97.519 100.99 97.519 110.074C97.519 119.158 127.73 126.522 164.999 126.522C202.269 126.522 232.482 119.158 232.482 110.074C232.482 100.99 202.269 93.627 164.999 93.627Z" fill="#CC6A1E"/>
<path d="M164.999 86.397C127.73 86.397 97.519 93.76 97.519 102.845C97.519 111.928 127.73 119.293 164.999 119.293C202.269 119.293 232.482 111.928 232.482 102.845C232.482 93.76 202.269 86.397 164.999 86.397Z" fill="#F89D57"/>
<path d="M97.519 102.845C97.519 111.928 127.73 119.293 164.999 119.293C202.269 119.293 232.482 111.928 232.482 102.845H97.519Z" fill="#FFC79B"/>
<path d="M221.29 29.1459C206.22 25.4729 186.229 23.4509 165 23.4509C143.77 23.4509 123.778 25.4729 108.71 29.1459C92.01 33.2159 83.543 38.6879 83.542 45.4079V69.1149C83.5284 82.7329 86.9415 96.1353 93.467 108.088C99.9925 120.041 109.421 130.159 120.883 137.512C134.591 146.476 145.059 159.603 150.746 174.962C150.76 175.002 150.775 175.039 150.791 175.077C152.024 178.989 160.055 179.607 165 179.607C169.94 179.607 177.963 178.989 179.206 175.085C179.223 175.046 179.239 175.006 179.254 174.965C184.947 159.599 195.42 146.465 209.132 137.494C220.589 130.141 230.012 120.024 236.535 108.075C243.058 96.1254 246.47 82.7275 246.458 69.1139V45.4079C246.458 38.6879 237.988 33.2159 221.29 29.1459ZM240.894 69.1149C240.904 81.7996 237.722 94.283 231.643 105.416C225.564 116.549 216.782 125.974 206.106 132.824C191.54 142.352 180.375 156.259 174.22 172.54C174.167 172.626 174.119 172.714 174.076 172.805C172.996 173.306 169.751 174.042 165 174.042C160.229 174.042 156.978 173.3 155.911 172.798C155.878 172.733 155.843 172.67 155.806 172.608C149.663 156.303 138.492 142.376 123.909 132.842C113.227 125.992 104.441 116.565 98.3588 105.429C92.2768 94.2921 89.0948 81.8041 89.106 69.1149V45.4089C89.106 41.9649 97.514 37.6019 110.027 34.5519C124.677 30.9819 144.201 29.0149 164.999 29.0149C185.798 29.0149 205.321 30.9819 219.972 34.5519C232.485 37.6019 240.892 41.9649 240.894 45.4079V69.1149Z" fill="#CA7D41"/>
<path d="M213.046 89.8631C200.196 86.7311 183.132 85.0061 165 85.0061C146.866 85.0061 129.804 86.7311 116.954 89.8631C107.454 92.1791 96.127 96.3111 96.127 102.845C96.127 109.379 107.453 113.511 116.954 115.827C129.804 118.959 146.867 120.684 165 120.684C183.133 120.684 200.195 118.959 213.046 115.827C222.546 113.511 233.873 109.379 233.873 102.845C233.873 96.3111 222.547 92.1791 213.046 89.8631ZM165 117.902C126.052 117.902 98.91 109.967 98.91 102.845C98.91 95.7241 126.052 87.7881 165 87.7881C203.948 87.7881 231.09 95.7241 231.09 102.845C231.09 109.967 203.948 117.902 165 117.902Z" fill="#CA7D41"/>
<path d="M164.999 224.247C148.495 224.247 135.116 227.507 135.116 231.531C135.116 235.554 148.496 238.814 164.999 238.814C181.503 238.814 194.883 235.554 194.883 231.531C194.883 227.508 181.503 224.247 164.999 224.247Z" fill="#F2DECE"/>
<path d="M164.999 204.972C148.495 204.972 135.116 208.234 135.116 212.256C135.116 216.278 148.496 219.539 164.999 219.539C181.503 219.539 194.883 216.278 194.883 212.256C194.883 208.234 181.503 204.972 164.999 204.972Z" fill="white"/>
<path d="M214.103 151.623C213.741 151.576 213.373 151.601 213.02 151.696C212.667 151.792 212.337 151.956 212.047 152.179C211.758 152.402 211.515 152.68 211.333 152.997C211.151 153.313 211.033 153.663 210.987 154.025C210.94 154.388 210.965 154.756 211.06 155.109C211.155 155.461 211.319 155.792 211.542 156.081C211.765 156.371 212.043 156.613 212.36 156.795C212.677 156.977 213.027 157.095 213.389 157.142C249.802 161.85 266.387 170.645 266.387 176.824C266.387 180.852 258.93 186.973 238 192.074C218.535 196.819 192.609 199.432 165 199.432C137.391 199.432 111.466 196.819 92.0011 192.074C71.0711 186.973 63.614 180.852 63.614 176.824C63.614 170.645 80.199 161.85 116.611 157.142C117.343 157.047 118.007 156.666 118.458 156.081C118.908 155.497 119.108 154.757 119.014 154.025C118.919 153.294 118.537 152.629 117.953 152.179C117.368 151.728 116.629 151.528 115.897 151.623C98.504 153.873 58.05 160.83 58.05 176.824C58.05 195.123 113.153 204.996 165 204.996C193.04 204.996 219.433 202.326 239.317 197.48C266.289 190.906 271.951 182.619 271.951 176.824C271.951 160.83 231.496 153.871 214.103 151.623Z" fill="#CA7D41"/>
<path d="M133.385 187.755C134.296 187.864 135.224 187.968 136.17 188.067L136.46 185.299C135.527 185.202 134.612 185.099 133.713 184.992L133.385 187.755ZM135.264 167.422L135.566 170.188C136.467 170.089 137.384 169.994 138.316 169.905L138.051 167.135C137.106 167.227 136.177 167.323 135.264 167.422ZM138.958 188.342C139.875 188.425 140.805 188.505 141.748 188.581L141.97 185.807C141.038 185.732 140.119 185.653 139.213 185.57L138.958 188.342ZM127.822 187.002C128.725 187.14 129.652 187.273 130.602 187.402L130.974 184.644C130.041 184.518 129.131 184.387 128.244 184.252L127.822 187.002ZM161.305 189.445C162.23 189.456 163.162 189.462 164.099 189.465L164.106 186.682C163.178 186.68 162.255 186.673 161.336 186.662L161.305 189.445ZM155.715 189.331C156.639 189.358 157.57 189.382 158.509 189.401L158.566 186.619C157.636 186.6 156.713 186.576 155.796 186.549L155.715 189.331ZM144.539 188.788C145.459 188.851 146.39 188.911 147.332 188.966L147.495 186.188C146.562 186.133 145.641 186.075 144.73 186.013L144.539 188.788ZM150.125 189.114C151.048 189.159 151.98 189.2 152.92 189.236L153.027 186.456C152.096 186.42 151.174 186.38 150.26 186.336L150.125 189.114ZM129.698 168.114L130.085 170.87C130.978 170.745 131.89 170.624 132.822 170.508L132.479 167.747C131.532 167.864 130.605 167.987 129.699 168.114H129.698ZM111.3 182.861C112.189 183.253 113.096 183.604 114.018 183.911L114.908 181.276C113.99 180.966 113.158 180.645 112.436 180.322L111.3 182.861ZM111.683 175.427L110.432 172.943C109.475 173.4 108.587 173.989 107.793 174.693L109.693 176.727C110.294 176.205 110.963 175.767 111.683 175.427ZM113.138 171.79L114.094 174.403C114.937 174.097 115.79 173.819 116.651 173.57L115.871 170.9C114.89 171.186 113.97 171.486 113.138 171.79ZM124.148 169.003L124.646 171.741C125.522 171.581 126.426 171.427 127.359 171.278L126.921 168.531C125.968 168.683 125.043 168.84 124.148 169.003ZM116.758 184.744C117.622 184.981 118.548 185.215 119.512 185.438L120.14 182.728C119.254 182.523 118.372 182.301 117.495 182.061L116.758 184.744ZM122.276 186.032C123.167 186.21 124.091 186.382 125.046 186.549L125.524 183.808C124.592 183.645 123.691 183.477 122.821 183.304L122.276 186.032ZM118.621 170.167L119.28 172.869C120.129 172.662 121.019 172.461 121.95 172.266L121.38 169.543C120.424 169.743 119.495 169.953 118.621 170.167ZM109.102 177.825L106.394 178.458C106.759 179.671 107.554 180.709 108.629 181.378L110.249 179.116C109.74 178.817 109.339 178.365 109.102 177.825ZM207.092 172.071C208.023 172.256 208.917 172.448 209.772 172.645L210.397 169.934C209.516 169.731 208.596 169.533 207.635 169.342L207.092 172.071ZM210.805 182.501L211.468 185.204C212.438 184.966 213.363 184.718 214.218 184.466L213.433 181.797C212.618 182.037 211.734 182.274 210.805 182.502V182.501ZM212.419 173.307C213.342 173.559 214.212 173.822 215.006 174.087L215.89 171.45C214.985 171.149 214.072 170.873 213.151 170.623L212.419 173.307ZM205.439 183.636L205.939 186.373C206.896 186.198 207.819 186.017 208.707 185.83L208.135 183.108C207.271 183.289 206.372 183.465 205.439 183.636ZM201.669 171.127C202.602 171.269 203.509 171.417 204.389 171.57L204.864 168.828C203.967 168.673 203.042 168.522 202.089 168.377L201.669 171.127ZM223.574 176.809L220.89 177.539C220.904 177.59 220.911 177.643 220.911 177.696C220.836 178.059 220.639 178.385 220.353 178.62L222.286 180.62C222.709 180.256 223.053 179.808 223.295 179.305C223.537 178.802 223.673 178.254 223.693 177.696C223.693 177.396 223.653 177.098 223.574 176.809ZM166.877 186.679L166.894 189.461C167.831 189.455 168.763 189.445 169.689 189.431L169.649 186.65C168.73 186.663 167.806 186.674 166.877 186.679ZM215.987 180.959L216.951 183.569C217.875 183.234 218.779 182.845 219.657 182.403L218.389 179.926C217.609 180.317 216.807 180.662 215.987 180.958V180.959ZM218.607 172.49L217.484 175.036C218.254 175.363 218.992 175.763 219.686 176.231L221.284 173.953C220.441 173.381 219.544 172.891 218.607 172.49ZM183.49 186.13L183.663 188.907C184.604 188.848 185.535 188.786 186.455 188.719L186.252 185.944C185.343 186.011 184.423 186.073 183.49 186.13ZM177.958 186.417L178.075 189.197C179.016 189.157 179.947 189.113 180.869 189.065L180.724 186.287C179.811 186.335 178.889 186.378 177.958 186.417ZM189.011 185.727L189.245 188.5C190.188 188.42 191.118 188.336 192.033 188.248L191.767 185.479C190.863 185.566 189.944 185.649 189.011 185.728V185.727ZM172.42 186.598L172.485 189.38C173.424 189.357 174.355 189.331 175.28 189.301L175.19 186.521C174.274 186.55 173.351 186.576 172.42 186.598ZM194.517 185.195L194.822 187.961C195.767 187.857 196.695 187.748 197.606 187.635L197.264 184.874C196.366 184.985 195.45 185.092 194.517 185.195ZM196.201 170.39C197.134 170.501 198.048 170.616 198.941 170.736L199.311 167.979C198.404 167.857 197.477 167.74 196.529 167.627L196.201 170.39ZM200 184.51L200.388 187.265C201.338 187.131 202.264 186.992 203.167 186.847L202.727 184.1C201.842 184.241 200.933 184.378 200 184.51ZM191.684 169.905C192.281 169.962 192.872 170.022 193.455 170.083L193.745 167.316C193.153 167.254 192.554 167.194 191.949 167.136L191.684 169.905ZM10.488 138.306L33.102 176.744L55.71 138.306H10.488ZM15.353 141.089H50.845L33.1 171.257L15.353 141.089Z" fill="#FFC79B"/>
<path d="M8.86206 138.306H57.3341V141.088H8.86206V138.306ZM33.1001 171.257L10.4871 209.694H55.7091L33.1001 171.257ZM33.1001 176.744L50.8441 206.912H15.3521L33.1001 176.744Z" fill="#FFC79B"/>
<path d="M8.86206 206.912H57.3341V209.694H8.86206V206.912ZM28.1371 150.973V153.755H35.6281L31.9011 160.098L34.3001 161.507L40.4911 150.973H28.1371ZM24.9841 146.096H41.2101V148.878H24.9841V146.096ZM30.5691 194.245L34.3001 187.904L31.9021 186.493L25.7041 197.028H38.0601V194.245H30.5691ZM24.9841 199.122H41.2101V201.904H24.9841V199.122ZM274.293 138.306L296.905 176.744L319.511 138.306H274.293ZM279.158 141.089H314.648L296.905 171.256L279.158 141.089Z" fill="#FFC79B"/>
<path d="M272.666 138.306H321.138V141.088H272.666V138.306ZM296.905 171.256L274.293 209.694H319.511L296.905 171.256ZM296.905 176.744L314.648 206.912H279.158L296.905 176.744Z" fill="#FFC79B"/>
<path d="M272.666 206.912H321.138V209.694H272.666V206.912ZM291.94 150.973V153.755H299.432L295.706 160.098L298.105 161.507L304.294 150.973H291.94ZM288.79 146.096H305.017V148.878H288.79V146.096ZM294.373 194.245L298.104 187.904L295.707 186.493L289.508 197.028H301.863V194.245H294.373ZM288.79 199.122H305.017V201.904H288.79V199.122ZM31.728 293.403H34.51V303.298H31.728V293.403Z" fill="#FFC79B"/>
<path d="M33.1179 286.312C29.7597 286.312 26.4769 287.307 23.6845 289.173C20.8922 291.039 18.7158 293.69 17.4306 296.793C16.1454 299.896 15.809 303.309 16.4641 306.603C17.1193 309.897 18.7364 312.922 21.111 315.297C23.4856 317.672 26.5111 319.289 29.8048 319.944C33.0985 320.599 36.5125 320.263 39.615 318.977C42.7175 317.692 45.3693 315.516 47.2349 312.723C49.1005 309.931 50.0961 306.648 50.0959 303.29C50.0907 298.789 48.3002 294.473 45.1174 291.291C41.9345 288.108 37.6192 286.317 33.1179 286.312ZM33.1179 317.487C30.3102 317.487 27.5655 316.655 25.2309 315.095C22.8963 313.535 21.0766 311.318 20.0019 308.724C18.9273 306.131 18.646 303.276 19.1935 300.522C19.7411 297.769 21.0929 295.239 23.0782 293.254C25.0634 291.268 27.5928 289.916 30.3465 289.368C33.1002 288.82 35.9545 289.101 38.5486 290.175C41.1426 291.25 43.3599 293.069 44.9199 295.403C46.48 297.738 47.3128 300.482 47.313 303.29C47.309 307.054 45.8122 310.662 43.1511 313.324C40.4899 315.985 36.8817 317.482 33.1179 317.487Z" fill="#FFC79B"/>
<path d="M31.728 293.403H34.51V303.298H31.728V293.403Z" fill="#FFC79B"/>
<path d="M28.263 306.174L32.141 302.302L34.107 304.27L30.229 308.142L28.263 306.174ZM52.175 285.075C51.485 284.385 50.6658 283.837 49.7641 283.464C48.8625 283.09 47.896 282.898 46.92 282.898C45.944 282.898 44.9776 283.09 44.0759 283.464C43.1742 283.837 42.355 284.385 41.665 285.075L43.635 287.042C44.064 286.597 44.5772 286.243 45.1447 285.999C45.7123 285.755 46.3228 285.626 46.9405 285.621C47.5583 285.615 48.1709 285.733 48.7427 285.967C49.3144 286.201 49.8338 286.547 50.2705 286.984C50.7072 287.421 51.0525 287.94 51.2861 288.512C51.5198 289.084 51.6371 289.697 51.6313 290.314C51.6255 290.932 51.4966 291.543 51.2522 292.11C51.0079 292.677 50.6529 293.19 50.208 293.619L52.175 295.587C52.8655 294.897 53.4132 294.078 53.7869 293.176C54.1607 292.274 54.353 291.307 54.353 290.331C54.353 289.355 54.1607 288.388 53.7869 287.486C53.4132 286.584 52.8655 285.765 52.175 285.075ZM43.901 291.383L45.515 289.767L47.483 291.733L45.87 293.348L43.901 291.383ZM14.06 285.076C12.67 286.472 11.8896 288.361 11.8896 290.331C11.8896 292.301 12.67 294.19 14.06 295.586L16.029 293.62C15.5971 293.188 15.2544 292.676 15.0206 292.112C14.7868 291.547 14.6664 290.943 14.6662 290.332C14.6661 289.721 14.7862 289.117 15.0198 288.552C15.2534 287.988 15.5958 287.475 16.0275 287.044C16.4592 286.612 16.9718 286.269 17.536 286.035C18.1001 285.801 18.7048 285.681 19.3155 285.681C19.9261 285.681 20.5309 285.801 21.0951 286.034C21.6594 286.268 22.1721 286.61 22.604 287.042L24.574 285.076C23.1787 283.684 21.2881 282.902 19.317 282.902C17.346 282.902 15.4554 283.684 14.06 285.076ZM18.753 291.734L20.72 289.765L22.337 291.38L20.37 293.35L18.753 291.734ZM15.283 318.782L17.783 316.283L19.751 318.251L17.251 320.751L15.283 318.782ZM46.489 318.249L48.457 316.283L50.953 318.782L48.985 320.748L46.489 318.249ZM296.922 26.843C292.731 26.8434 288.634 28.0866 285.15 30.4152C281.665 32.7439 278.95 36.0535 277.346 39.9256C275.743 43.7976 275.324 48.0582 276.142 52.1686C276.959 56.279 278.978 60.0545 281.941 63.0177C284.905 65.9809 288.681 67.9988 292.791 68.8161C296.902 69.6335 301.162 69.2136 305.034 67.6096C308.906 66.0055 312.215 63.2894 314.543 59.8046C316.872 56.3199 318.114 52.223 318.114 48.032C318.108 42.4136 315.873 37.0271 311.9 33.0545C307.927 29.0818 302.54 26.8486 296.922 26.843ZM296.922 66.441C293.281 66.4406 289.723 65.3607 286.696 63.3379C283.669 61.315 281.31 58.4401 279.917 55.0765C278.524 51.713 278.16 48.0119 278.87 44.4413C279.58 40.8707 281.333 37.5909 283.908 35.0166C286.482 32.4423 289.762 30.6892 293.332 29.9788C296.903 29.2685 300.604 29.6329 303.968 31.0259C307.331 32.4189 310.206 34.778 312.229 37.8049C314.252 40.8317 315.332 44.3905 315.332 48.031C315.327 52.9121 313.386 57.5919 309.934 61.0433C306.483 64.4948 301.803 66.436 296.922 66.441Z" fill="#FFC79B"/>
<path d="M295.53 38.1079H298.313V48.0409H295.53V38.1079Z" fill="#FFC79B"/>
<path d="M295.53 38.1079H298.313V48.0409H295.53V38.1079Z" fill="#FFC79B"/>
<path d="M296.919 46.646H302.599V49.428H296.919V46.646Z" fill="#FFC79B"/>
<path d="M296.922 45.5961C296.44 45.5959 295.969 45.7387 295.568 46.0064C295.167 46.2741 294.854 46.6547 294.67 47.1C294.485 47.5454 294.437 48.0355 294.531 48.5083C294.625 48.9811 294.857 49.4154 295.198 49.7563C295.539 50.0972 295.973 50.3293 296.446 50.4233C296.919 50.5173 297.409 50.469 297.854 50.2844C298.299 50.0998 298.68 49.7873 298.948 49.3864C299.215 48.9855 299.358 48.5142 299.358 48.0321C299.357 47.3863 299.1 46.7671 298.644 46.3105C298.187 45.8538 297.568 45.5969 296.922 45.5961ZM296.922 48.3781C296.854 48.3781 296.787 48.3578 296.73 48.3198C296.673 48.2818 296.628 48.2277 296.602 48.1645C296.576 48.1013 296.569 48.0317 296.583 47.9646C296.596 47.8975 296.629 47.8358 296.677 47.7874C296.726 47.739 296.787 47.7061 296.854 47.6927C296.922 47.6794 296.991 47.6863 297.054 47.7124C297.118 47.7386 297.172 47.783 297.21 47.8399C297.248 47.8968 297.268 47.9637 297.268 48.0321C297.268 48.1238 297.231 48.2116 297.166 48.2765C297.102 48.3413 297.014 48.3778 296.922 48.3781ZM56.2729 280.76L76.491 260.542L78.4579 262.509L58.24 282.728L56.2729 280.76ZM251.541 85.4911L271.761 65.2731L273.728 67.2401L253.508 87.4591L251.541 85.4911ZM56.2729 67.2401L58.24 65.2721L78.457 85.4901L76.49 87.4581L56.2729 67.2401ZM251.541 262.51L253.509 260.542L273.727 280.762L271.76 282.729L251.541 262.51ZM139.398 4.3001L139.163 1.5281C138.228 1.60677 137.299 1.68977 136.377 1.7771L136.64 4.5471C137.551 4.46043 138.47 4.3781 139.398 4.3001ZM136.388 40.3071C137.309 40.3938 138.238 40.4771 139.175 40.5571L139.409 37.7831C138.482 37.7058 137.563 37.6238 136.652 37.5371L136.388 40.3071ZM130.823 39.7181C131.74 39.8261 132.668 39.9294 133.605 40.0281L133.897 37.2611C132.971 37.1631 132.054 37.0611 131.147 36.9551L130.823 39.7181ZM125.269 39.0011C126.182 39.1304 127.107 39.2558 128.044 39.3771L128.4 36.6171C127.475 36.4978 126.562 36.3744 125.66 36.2471L125.269 39.0011ZM133.885 4.8211L133.593 2.0551C132.656 2.15377 131.729 2.2571 130.811 2.3651L131.136 5.1281C132.043 5.02143 132.959 4.91943 133.886 4.8221L133.885 4.8211ZM144.922 3.8901L144.742 1.1131C143.806 1.1731 142.876 1.23743 141.952 1.3061L142.159 4.0811C143.072 4.0131 143.993 3.94943 144.922 3.8901ZM128.39 5.4661L128.032 2.7061C127.097 2.82743 126.172 2.9531 125.257 3.0831L125.648 5.8381C126.551 5.7101 127.465 5.5861 128.39 5.4661ZM155.992 3.3811L155.914 0.601097C154.977 0.627097 154.046 0.657101 153.12 0.691101L153.222 3.4711C154.139 3.43777 155.063 3.40776 155.992 3.3811ZM153.131 41.3921C154.058 41.4268 154.989 41.4568 155.925 41.4821L156.002 38.7021C155.075 38.6754 154.151 38.6454 153.232 38.6121L153.131 41.3921ZM161.533 3.2751L161.503 0.492096C160.568 0.502763 159.636 0.516762 158.709 0.534096L158.762 3.3161C159.681 3.29877 160.605 3.2851 161.533 3.2751ZM119.73 38.1381C120.638 38.2928 121.56 38.4428 122.497 38.5881L122.925 35.8401C122.002 35.6961 121.093 35.5478 120.197 35.3951L119.73 38.1381ZM150.455 3.5861L150.327 0.806099C149.39 0.849432 148.459 0.896098 147.535 0.946098L147.687 3.7251C148.603 3.67443 149.526 3.62876 150.455 3.5861ZM141.964 40.7761C142.886 40.8448 143.816 40.9094 144.754 40.9701L144.934 38.1931C144.005 38.1331 143.083 38.0698 142.169 38.0031L141.964 40.7761ZM147.545 41.1361C148.47 41.1874 149.401 41.2344 150.337 41.2771L150.465 38.4971C149.537 38.4551 148.615 38.4088 147.698 38.3581L147.545 41.1361ZM87.715 21.0461L84.933 21.0481C84.9452 22.2122 85.2606 23.353 85.848 24.3581L88.271 22.9921C87.9184 22.4033 87.7267 21.7323 87.715 21.0461ZM96.412 13.1611L95.2729 10.6221C94.3961 11.0137 93.5332 11.436 92.686 11.8881L94 14.3401C94.74 13.9431 95.552 13.5461 96.412 13.1611ZM122.914 6.2441L122.486 3.4951C121.55 3.64177 120.628 3.7921 119.719 3.9461L120.187 6.6891C121.083 6.53644 121.992 6.3881 122.914 6.2441ZM92.695 30.2011C93.5423 30.6534 94.4055 31.0753 95.283 31.4661L96.42 28.9271C95.6029 28.5631 94.7991 28.1701 94.0099 27.7491L92.695 30.2011ZM158.72 41.5481C159.647 41.5654 160.578 41.5794 161.514 41.5901L161.544 38.8071C160.616 38.7978 159.692 38.7844 158.772 38.7671L158.72 41.5481ZM91.737 15.6951L90.1779 13.3911C89.3433 13.948 88.556 14.5728 87.824 15.2591L89.741 17.2751C90.362 16.6948 91.0296 16.1664 91.737 15.6951ZM101.477 11.1931L100.581 8.5591C99.6539 8.8741 98.7559 9.1991 97.9109 9.5261L98.9129 12.1211C99.7229 11.8081 100.584 11.4961 101.477 11.1931ZM88.267 19.0991L85.841 17.7391C85.2575 18.7426 84.9447 19.8804 84.933 21.0411H87.715C87.7262 20.3567 87.9165 19.6871 88.267 19.0991ZM87.834 26.8331C88.5663 27.5187 89.3536 28.1431 90.188 28.7001L91.748 26.3941C91.0399 25.9237 90.3716 25.3959 89.75 24.8161L87.834 26.8331ZM117.468 7.1741L116.958 4.4391C116.022 4.61377 115.103 4.79343 114.202 4.9781L114.759 7.7041C115.646 7.52277 116.548 7.3461 117.468 7.1741ZM108.728 35.8761C109.619 36.0961 110.532 36.3108 111.466 36.5201L112.073 33.8051C111.16 33.5998 110.266 33.3898 109.393 33.1751L108.728 35.8761ZM114.214 37.1071C115.114 37.2918 116.032 37.4714 116.969 37.6461L117.479 34.9101C116.559 34.7394 115.656 34.5634 114.771 34.3821L114.214 37.1071ZM112.064 8.2811L111.455 5.5661C110.521 5.77543 109.608 5.98977 108.716 6.2091L109.382 8.9111C110.255 8.69577 111.149 8.48576 112.064 8.2811ZM106.72 9.6011L105.99 6.9161C105.058 7.16943 104.153 7.42943 103.276 7.6961L104.083 10.3581C104.936 10.1001 105.815 9.84776 106.72 9.6011ZM97.92 32.5611C98.769 32.8881 99.6669 33.2131 100.592 33.5271L101.487 30.8931C100.626 30.6011 99.7713 30.2917 98.923 29.9651L97.92 32.5611ZM103.287 34.3911C104.164 34.6564 105.069 34.9161 106.001 35.1701L106.731 32.4851C105.824 32.2384 104.945 31.9861 104.093 31.7281L103.287 34.3911ZM172.681 0.564102C171.754 0.542769 170.823 0.524768 169.887 0.510101L169.845 3.2931C170.773 3.30643 171.697 3.3241 172.616 3.3461L172.681 0.564102ZM219.281 33.4941L219.919 36.2021C220.852 35.9821 221.763 35.7574 222.652 35.5281L221.954 32.8341C221.086 33.0588 220.195 33.2788 219.282 33.4941H219.281ZM224.605 32.1121L225.372 34.7861C226.303 34.5194 227.204 34.2461 228.077 33.9661L227.228 31.3161C226.383 31.5874 225.508 31.8528 224.605 32.1121ZM222.642 6.5521C221.753 6.3221 220.842 6.09743 219.907 5.8781L219.271 8.5871C220.184 8.80043 221.074 9.0201 221.943 9.2461L222.642 6.5521ZM228.067 8.1121C227.194 7.83343 226.292 7.56076 225.361 7.2941L224.595 9.9681C225.498 10.2268 226.372 10.4918 227.218 10.7631L228.067 8.1121ZM213.89 34.6501L214.423 37.3801C215.358 37.1981 216.275 37.0108 217.175 36.8181L216.592 34.0981C215.709 34.2868 214.808 34.4708 213.89 34.6501ZM208.453 35.6221L208.901 38.3671C209.836 38.2144 210.758 38.0574 211.665 37.8961L211.175 35.1561C210.282 35.3161 209.375 35.4714 208.453 35.6221ZM217.164 5.2651C216.265 5.07177 215.348 4.8841 214.413 4.7021L213.88 7.4321C214.798 7.6121 215.698 7.79643 216.581 7.9851L217.164 5.2651ZM239.307 25.6291L241.027 27.8151C241.841 27.1864 242.583 26.4704 243.241 25.6801L241.085 23.9221C240.556 24.5538 239.96 25.1262 239.307 25.6291ZM211.653 4.1871C210.746 4.0251 209.825 3.8681 208.889 3.7161L208.441 6.4621C209.363 6.6121 210.271 6.76677 211.164 6.9261L211.653 4.1871ZM244.816 19.2931L242.143 20.0631C242.33 20.6995 242.331 21.3763 242.145 22.0131L244.819 22.7781C245.149 21.6397 245.148 20.4309 244.816 19.2931ZM241.079 18.1541L243.232 16.3941C242.573 15.6053 241.831 14.8904 241.018 14.2621L239.298 16.4491C239.951 16.9514 240.549 17.5231 241.079 18.1541ZM234.811 28.3521L236.031 30.8521C236.948 30.4051 237.807 29.9431 238.583 29.4791L237.157 27.0911C236.447 27.5141 235.658 27.9401 234.811 28.3521ZM229.814 30.4391L230.761 33.0551C231.654 32.7328 232.539 32.3901 233.416 32.0271L232.349 29.4571C231.555 29.7871 230.702 30.1171 229.814 30.4391ZM238.572 12.5991C237.741 12.1065 236.889 11.6488 236.02 11.2271L234.8 13.7281C235.647 14.1411 236.437 14.5651 237.147 14.9881L238.572 12.5991ZM233.404 10.0541C232.527 9.69101 231.641 9.34825 230.748 9.0261L229.803 11.6431C230.687 11.9631 231.54 12.2931 232.338 12.6231L233.404 10.0541ZM202.984 36.4351L203.359 39.1921C204.294 39.0654 205.218 38.9341 206.131 38.7981L205.721 36.0461C204.82 36.1801 203.908 36.3091 202.984 36.4351ZM183.853 1.0271C182.928 0.971766 181.998 0.920766 181.061 0.8741L180.921 3.6521C181.848 3.69877 182.77 3.74977 183.686 3.8051L183.853 1.0271ZM167.073 3.2641L167.091 0.482101C166.396 0.477435 165.699 0.475098 165.001 0.475098H164.297L164.301 3.2581H165C165.693 3.2581 166.385 3.2601 167.074 3.2641H167.073ZM175.395 38.6601L175.485 41.4401C176.421 41.4101 177.352 41.3761 178.278 41.3381L178.164 38.5581C177.246 38.5961 176.324 38.6301 175.395 38.6601ZM169.854 38.7901L169.896 41.5731C170.831 41.5591 171.763 41.5411 172.69 41.5191L172.625 38.7371C171.706 38.7591 170.782 38.7771 169.853 38.7911L169.854 38.7901ZM178.268 0.746101C177.341 0.708101 176.41 0.673764 175.474 0.643097L175.384 3.4241C176.313 3.4541 177.236 3.4881 178.154 3.5261L178.268 0.746101ZM164.998 38.8261H164.313L164.309 41.6081L164.998 41.6091H165.133C165.791 41.6091 166.447 41.6071 167.102 41.6031L167.084 38.8201C166.392 38.8251 165.694 38.8241 164.999 38.8271L164.998 38.8261ZM189.433 1.4141C188.51 1.34077 187.58 1.27177 186.643 1.2071L186.451 3.9821C187.379 4.0461 188.299 4.11443 189.212 4.1871L189.433 1.4141ZM180.931 38.4311L181.071 41.2111C182.008 41.1631 182.939 41.1118 183.864 41.0571L183.698 38.2791C182.782 38.3344 181.86 38.3851 180.931 38.4311ZM197.491 37.1111L197.801 39.8771C198.736 39.7724 199.663 39.6638 200.58 39.5511L200.24 36.7901C199.333 36.9014 198.417 37.0088 197.492 37.1121L197.491 37.1111ZM206.12 3.2851C205.209 3.1491 204.284 3.01776 203.347 2.8911L202.973 5.6481C203.898 5.77344 204.81 5.9031 205.711 6.0371L206.12 3.2851ZM200.569 2.5321C199.653 2.41876 198.726 2.3101 197.789 2.2061L197.481 4.9721C198.408 5.07477 199.324 5.18177 200.229 5.2931L200.569 2.5321ZM186.462 38.1021L186.655 40.8771C187.592 40.8118 188.522 40.7428 189.444 40.6701L189.224 37.8961C188.311 37.9688 187.39 38.0374 186.462 38.1021ZM195.005 1.9121C194.086 1.8201 193.157 1.73243 192.22 1.6491L191.973 4.4201C192.9 4.50276 193.818 4.58977 194.728 4.6811L195.005 1.9121ZM191.985 37.6641L192.231 40.4351C193.168 40.3511 194.097 40.2631 195.017 40.1711L194.739 37.4031C193.829 37.4944 192.911 37.5811 191.984 37.6631L191.985 37.6641ZM165 18.6371C162.466 18.6371 159.445 19.0541 159.445 21.0411C159.445 23.0301 162.465 23.4471 165 23.4471C167.534 23.4471 170.555 23.0301 170.555 21.0411C170.555 19.0541 167.534 18.6371 165 18.6371Z" fill="#FFC79B"/>
<path d="M163.608 22.0559H166.39V33.9689H163.608V22.0559ZM163.608 46.9869H166.39V58.9009H163.608V46.9869ZM163.608 70.4089H166.39V101.529H163.608V70.4089ZM278.848 287.849V298.301H281.631V290.631H289.302V287.849H278.848ZM308.045 317.046V327.499H310.828V319.829H318.5V317.046H308.045Z" fill="#FFC79B"/>
<path d="M313.797 322.797V333.251H316.579V325.579H324.25V322.797H313.797Z" fill="#FFC79B"/>
<path d="M319.549 328.548V339H322.331V331.33H330V328.548H319.549ZM275.024 250.796V261.249H277.806V253.578H285.476V250.796H275.024ZM304.222 279.995V290.447H307.004V282.777H314.675V279.995H304.222Z" fill="#FFC79B"/>
<path d="M309.972 285.745V296.198H312.754V288.527H320.424V285.745H309.972Z" fill="#FFC79B"/>
<path d="M315.724 291.496V301.948H318.506V294.279H326.176V291.496H315.724ZM48.369 49.699V57.369H40.698V60.151H51.152V49.699H48.369ZM19.172 20.501V28.172H11.5V30.954H21.954V20.501H19.172Z" fill="#FFC79B"/>
<path d="M13.421 14.751V22.421H5.75V25.203H16.203V14.751H13.421Z" fill="#FFC79B"/>
<path d="M7.669 9V16.67H0V19.452H10.452V9H7.669ZM52.194 86.751V94.422H44.523V97.204H54.976V86.751H52.194ZM22.996 57.553V65.224H15.324V68.006H25.778V57.553H22.996Z" fill="#FFC79B"/>
<path d="M17.245 51.802V59.473H9.57397V62.255H20.027V51.802H17.245Z" fill="#FFC79B"/>
<path d="M11.493 46.052V53.722H3.82397V56.504H14.275V46.052H11.493ZM163.608 299.098H166.391V296.316H163.608V299.098ZM163.608 304.663H166.391V301.881H163.608V304.663ZM163.608 309.444H166.391V307.445H163.608V309.444ZM163.608 287.969H166.391V285.187H163.608V287.969ZM163.608 274.058V276.84H166.391V274.058H163.608ZM163.608 282.405H166.391V279.622H163.608V282.405ZM163.608 293.534H166.391V290.751H163.608V293.534ZM163.608 168.224H166.391V166.224H163.608V168.224ZM163.608 157.878H166.391V155.095H163.608V157.878ZM163.608 152.313H166.391V149.531H163.608V152.313ZM163.608 163.443H166.391V160.66H163.608V163.443ZM163.608 132.837V135.619H166.391V132.837H163.608ZM163.608 146.748H166.391V143.966H163.608V146.748ZM163.608 141.184H166.391V138.4H163.608V141.184ZM263.549 75.451L261.582 77.418C266.875 82.712 240.139 124.763 177.952 186.951C120.876 244.027 80.765 271.239 70.462 271.236C70.095 271.267 69.7256 271.225 69.3748 271.113C69.0241 271 68.6989 270.82 68.418 270.582L66.451 272.549C66.9753 273.026 67.5904 273.393 68.2597 273.627C68.9289 273.861 69.6385 273.958 70.346 273.911C76.82 273.911 89 267.23 106.699 253.955C127.81 238.121 153.813 215.024 179.918 188.918C206.024 162.813 229.122 136.81 244.956 115.698C261.689 93.388 267.946 79.847 263.549 75.45V75.451Z" fill="#FFC79B"/>
<path d="M261.581 270.582C256.292 275.875 214.236 249.139 152.048 186.951C126.033 160.935 103.027 135.038 87.2691 114.029C79.6401 103.857 74.1401 95.405 70.9231 88.909C66.7401 80.459 67.7771 78.058 68.4171 77.418L66.4501 75.45C62.0541 79.847 68.3101 93.388 85.0441 115.699C100.877 136.809 123.976 162.812 150.081 188.918C176.186 215.024 202.19 238.121 223.301 253.955C241 267.231 253.181 273.911 259.653 273.911C260.361 273.958 261.07 273.861 261.739 273.627C262.409 273.393 263.024 273.026 263.548 272.549L261.581 270.582Z" fill="#FFC79B"/>
</svg>
